<?xml version="1.0" standalone="no"?>
<!DOCTYPE svg PUBLIC "-//W3C//DTD SVG 20010904//EN"
 "http://www.w3.org/TR/2001/REC-SVG-20010904/DTD/svg10.dtd">
<svg version="1.0" xmlns="http://www.w3.org/2000/svg"
 width="300.000000pt" height="300.000000pt" viewBox="0 0 300.000000 300.000000"
 preserveAspectRatio="xMidYMid meet">
<metadata>
Created by potrace 1.14, written by Peter Selinger 2001-2017
</metadata>
<g transform="translate(0.000000,300.000000) scale(0.100000,-0.100000)"
fill="#000000" stroke="none">
<path d="M1580 2864 c-230 -60 -331 -105 -452 -200 -45 -35 -58 -41 -58 -28 0
14 -3 15 -12 6 -8 -8 -17 -8 -31 0 -16 8 -17 12 -6 19 10 6 5 9 -16 9 -41 0
-118 24 -123 38 -5 15 -82 16 -82 2 0 -14 -31 -12 -63 5 -25 13 -28 13 -34 -3
-3 -9 -19 -29 -35 -44 -15 -15 -28 -33 -28 -41 0 -24 -41 -101 -64 -119 -17
-15 -19 -19 -7 -27 12 -8 10 -11 -11 -16 -19 -5 -26 -13 -26 -31 1 -14 -8 -31
-17 -38 -11 -8 -16 -20 -12 -29 3 -9 1 -20 -6 -24 -7 -5 -20 -25 -29 -45 -10
-21 -24 -38 -32 -38 -18 0 -36 -30 -36 -58 0 -11 -7 -25 -15 -32 -7 -6 -17
-33 -20 -58 -4 -26 -11 -57 -17 -69 -10 -21 -6 -163 9 -273 9 -66 0 -158 -27
-269 -6 -24 -8 -58 -4 -74 3 -16 2 -27 -2 -24 -5 3 -10 -10 -11 -29 -2 -44
-32 -134 -44 -134 -5 0 -9 -6 -9 -14 0 -8 -6 -21 -14 -28 -7 -8 -17 -24 -20
-36 -4 -12 -12 -22 -17 -22 -5 0 -9 -7 -9 -15 0 -23 -39 -91 -68 -119 -15 -14
-44 -41 -64 -60 -21 -20 -38 -40 -38 -46 0 -5 -7 -10 -15 -10 -13 0 -15 -56
-15 -445 l0 -445 745 0 c410 0 745 2 745 5 0 11 -164 238 -205 283 -87 97
-219 259 -254 312 -20 30 -48 71 -62 90 -15 19 -32 59 -39 88 -10 45 -10 59 6
103 25 69 40 79 47 31 9 -51 57 -122 142 -208 69 -69 214 -179 224 -169 2 3
-4 11 -14 19 -10 7 -15 18 -11 24 5 8 2 10 -8 6 -18 -7 -22 16 -6 32 13 13 77
-16 203 -92 104 -62 168 -79 282 -71 44 3 87 6 95 8 12 3 14 -5 13 -35 -2 -21
-7 -44 -11 -50 -5 -6 -19 -39 -32 -74 -23 -63 -23 -63 -3 -90 11 -15 23 -36
26 -46 10 -25 14 -19 21 33 7 51 23 76 40 62 9 -7 21 15 45 78 28 77 31 94 22
126 -8 31 -7 39 10 56 11 11 17 24 14 29 -3 5 0 7 7 5 8 -3 40 -54 72 -112 47
-87 56 -113 51 -138 -3 -16 -9 -50 -13 -75 -10 -57 -22 -79 -62 -112 -30 -25
-32 -30 -26 -72 l7 -46 314 0 314 0 -34 98 c-67 192 -105 260 -202 357 -73 73
-127 99 -256 121 -82 14 -101 20 -114 40 -19 30 -30 30 -39 2 -4 -13 -16 -35
-28 -51 -16 -22 -26 -27 -44 -22 -20 5 -23 3 -17 -15 4 -11 3 -19 -2 -18 -4 1
-19 -4 -32 -11 -46 -26 -171 7 -171 44 0 8 -7 15 -16 15 -9 0 -25 11 -36 25
-12 16 -30 25 -47 25 -16 0 -37 10 -50 23 -22 24 -61 94 -61 110 0 18 -50 117
-60 117 -5 0 -10 -12 -11 -27 0 -16 -3 -22 -6 -16 -2 7 -19 20 -37 28 -40 19
-59 72 -57 160 2 92 -9 165 -25 165 -8 0 -14 7 -14 15 0 9 -7 18 -15 21 -13 5
-40 43 -70 99 -6 11 -16 43 -23 72 -17 65 0 137 30 130 10 -3 18 -1 18 5 0 5
9 6 20 3 11 -3 20 -2 20 3 0 10 49 4 65 -8 6 -5 26 -8 45 -8 19 0 40 -2 45 -3
16 -5 75 19 75 30 0 6 -13 11 -30 11 -19 0 -33 7 -40 20 -11 20 3 30 15 10 4
-6 19 -4 42 5 51 21 87 0 48 -29 -20 -15 -20 -15 2 -16 12 0 34 5 49 10 32 13
56 -2 36 -22 -20 -20 -15 -40 8 -33 11 3 20 4 20 2 0 -2 5 -28 10 -57 9 -50 8
-56 -18 -99 -16 -25 -35 -61 -42 -78 -7 -18 -16 -33 -21 -33 -5 0 -9 -6 -9
-13 0 -15 -34 -45 -75 -68 -35 -19 -43 -50 -19 -73 12 -13 14 -20 5 -29 -14
-14 -14 -54 0 -62 5 -4 21 -30 35 -58 34 -72 48 -95 70 -115 19 -17 74 -46
108 -57 10 -3 16 -9 12 -12 -10 -10 73 -29 109 -25 23 3 34 12 46 38 l16 34
-41 1 c-22 0 -61 4 -86 8 l-45 8 43 2 c23 0 42 6 42 12 0 5 5 7 10 4 6 -4 31
-7 55 -7 36 0 53 7 88 36 53 43 109 152 86 167 -15 9 -7 12 27 10 18 -2 20 2
16 30 -3 18 -15 48 -28 67 -26 37 -30 57 -14 67 6 3 10 12 10 19 0 20 -50 7
-83 -20 -37 -31 -48 -30 -90 10 l-36 34 16 53 c9 30 16 72 17 94 0 79 -25 221
-50 272 -13 28 -24 60 -24 70 0 32 -12 63 -22 57 -6 -4 -8 5 -6 22 2 23 -4 33
-31 51 -19 13 -44 23 -56 23 -11 0 -30 7 -41 15 -12 9 -44 14 -90 15 -96 0
-137 9 -130 27 4 8 -2 27 -13 41 -10 15 -19 30 -20 35 0 4 -9 19 -18 34 -20
30 -22 138 -3 157 5 5 10 22 10 37 0 15 7 32 16 40 11 9 14 22 10 42 -4 17 0
37 10 52 9 13 13 29 9 34 -3 6 7 13 22 17 15 4 30 11 33 15 3 4 46 10 95 12
117 6 122 8 195 80 30 29 70 36 70 12 0 -8 4 -15 9 -15 5 0 11 7 15 15 9 23
33 18 68 -15 18 -18 42 -30 57 -30 15 0 35 -6 46 -13 34 -23 63 -27 70 -8 6
14 7 14 16 -2 6 -9 15 -14 21 -11 6 4 14 1 18 -6 7 -11 12 -10 25 3 9 10 22
14 28 10 6 -4 8 0 4 10 -12 32 15 29 44 -4 24 -28 28 -29 18 -9 -43 88 -180
226 -289 291 -118 69 -287 130 -361 128 -19 0 -59 -7 -89 -15z m65 -1204 c7
-11 -34 -40 -58 -40 -15 0 -18 5 -13 23 3 12 6 30 6 39 0 15 3 15 30 2 16 -9
32 -19 35 -24z m-776 -170 c13 -22 13 -24 -1 -12 -24 19 -40 99 -31 146 7 39
8 37 13 -34 3 -41 11 -86 19 -100z m841 102 c0 -5 -6 -16 -13 -26 -11 -15 -18
-17 -33 -8 -14 9 -15 12 -4 13 8 1 18 1 23 0 4 0 7 6 7 14 0 8 5 15 10 15 6 0
10 -4 10 -8z m-414 -468 c6 -8 14 -53 17 -101 5 -72 10 -91 27 -105 11 -9 20
-27 20 -41 0 -21 -4 -25 -26 -22 -32 3 -52 22 -58 57 -2 15 -14 40 -26 56 -22
30 -39 135 -27 167 8 18 55 11 73 -11z m599 -44 c3 -5 20 -10 37 -10 21 0 31
-6 35 -20 3 -11 10 -20 17 -20 6 -1 -1 -7 -15 -15 -33 -18 -97 -19 -177 -3
-60 13 -75 28 -27 28 13 0 28 7 35 15 7 8 19 15 26 15 8 0 14 5 14 10 0 6 11
10 24 10 14 0 28 -4 31 -10z m83 -118 c-5 -26 -66 -51 -128 -51 -68 0 -90 6
-90 25 0 12 -4 12 -20 4 -24 -13 -40 -5 -40 19 0 17 12 18 141 20 128 1 140
-1 137 -17z m-3 -498 c12 -18 0 -73 -22 -95 -16 -16 -20 0 -15 59 4 53 16 65
37 36z"/>
<path d="M1857 1054 c-10 -11 3 -24 24 -24 23 0 25 15 3 24 -19 7 -19 7 -27 0z"/>
<path d="M2195 1903 c-140 -29 -164 -53 -195 -195 -12 -55 -12 -58 9 -75 12
-10 27 -29 34 -42 13 -27 109 -81 143 -81 35 0 53 10 47 26 -4 10 3 14 21 14
14 0 26 4 26 10 0 5 15 16 34 24 34 14 50 44 35 67 -5 8 -9 24 -9 35 0 32 -45
71 -90 78 -49 8 -52 23 -6 32 62 11 149 -21 144 -54 -5 -25 19 -25 26 0 18 67
-13 145 -64 159 -27 8 -123 9 -155 2z m53 -215 c21 -21 13 -47 -19 -63 -33
-17 -51 -13 -31 7 7 7 12 25 12 40 0 30 17 37 38 16z m-28 -135 c0 -14 -36
-18 -44 -4 -8 12 3 20 25 18 10 -1 19 -7 19 -14z"/>
<path d="M1987 1618 c-6 -17 18 -58 34 -58 15 0 10 26 -9 50 -16 19 -20 20
-25 8z"/>
<path d="M2000 1391 c0 -6 4 -13 10 -16 6 -3 7 1 4 9 -7 18 -14 21 -14 7z"/>
<path d="M2115 741 c-3 -6 -4 -11 0 -11 3 0 -1 -13 -10 -30 -13 -25 -13 -30
-2 -30 9 0 17 15 20 37 7 39 4 52 -8 34z"/>
<path d="M1360 524 c0 -2 15 -11 33 -20 27 -14 30 -15 19 -2 -11 14 -52 31
-52 22z"/>
<path d="M1444 475 c27 -21 255 -136 288 -146 16 -4 28 -4 28 2 0 5 -4 9 -10
9 -5 0 -17 8 -27 19 -10 10 -43 26 -73 36 -30 10 -84 32 -120 49 -36 16 -74
34 -85 38 -20 8 -20 8 -1 -7z"/>
</g>
</svg>
